#!OML:ASF H:\Terrain\Patient Classification 1\Terrain2\Thursday\justin.ASF
:FULLY-SPECIFIED
:DEGREES
2029
root -1.86431 17.5371 22.001 -361.036 -149.93 1.115
lowerback 7.90579 0.445581 -1.98659
upperback 2.56845 0.333582 3.04671
thorax -1.80563 0.0833644 4.24663
lowerneck -4.97346 -7.22038 -14.8247
upperneck 33.2982 -15.4065 9.4806
head 14.0811 -8.70328 3.89289
rclavicle 4.19436e-014 -3.18055e-015
rhumerus -31.2733 -10.4628 -76.805
rradius 40.6343
rwrist -14.1378
rhand -22.8654 9.25774
rfingers 7.12502
rthumb 3.57306 -20.6921
lclavicle 4.19436e-014 -3.18055e-015
lhumerus -38.9188 8.38167 80.9142
lradius 31.6856
lwrist 3.55156
lhand -19.7364 24.7413
lfingers 7.12502
lthumb 6.59433 -305.381
rfemur -17.0137 6.26214 17.1246
rtibia 39.7072
rfoot -19.9991 19.3279
rtoes 5.19568
lfemur -6.97846 352.794 -16.015
ltibia 27.6319
lfoot -10.515 -27.1735
ltoes 23.0393
2030
root -1.89115 17.5371 22.0183 -360.845 -151.006 1.2183
lowerback 7.85684 0.511515 -1.98573
upperback 2.48974 0.425704 3.12136
thorax -1.86854 0.131905 4.31565
lowerneck -5.39554 -7.10362 -14.6451
upperneck 33.3756 -15.0631 9.1754
head 14.1015 -8.54449 3.77793
rclavicle -8.94531e-015 -5.64548e-014
rhumerus -31.2845 -10.4928 -76.7356
rradius 39.9501
rwrist -13.4776
rhand -23.5322 9.0851
rfingers 7.12502
rthumb 2.92917 -20.8745
lclavicle -8.94531e-015 -5.64548e-014
lhumerus -39.0032 8.42282 80.8491
lradius 32.1239
lwrist 3.89831
lhand -18.8192 23.2146
lfingers 7.12502
lthumb 7.47962 -306.938
rfemur -17.4513 5.69306 17.4136
rtibia 39.991
rfoot -20.0065 18.0281
rtoes 3.72972
lfemur -7.01972 353.635 -15.9325
ltibia 27.5203
lfoot -10.8663 -26.9771
ltoes 21.9262
2031
root -1.92295 17.5489 22.0294 -360.496 -152.033 1.05107
lowerback 7.69274 0.538133 -2.18694
upperback 2.39646 0.456229 3.09573
thorax -1.87791 0.152478 4.40033
lowerneck -5.48463 -6.97626 -14.6213
upperneck 33.4503 -14.894 9.12455
head 14.118 -8.48511 3.7768
rclavicle 3.28989e-014 1.43125e-014
rhumerus -31.492 -10.4701 -76.6911
rradius 39.5972
rwrist -13.2064
rhand -23.8576 9.46522
rfingers 7.12502
rthumb 2.61484 -20.4985
lclavicle 3.28989e-014 1.43125e-014
lhumerus -39.1115 8.35546 80.8564
lradius 32.5337
lwrist 5.12099
lhand -14.2734 17.1634
lfingers 7.12502
lthumb 11.8655 -313.193
rfemur -18.0031 5.12405 17.4445
rtibia 40.2972
rfoot -19.7799 16.814
rtoes 3.87878
lfemur -7.04342 354.414 -16.1294
ltibia 27.3434
lfoot -10.7764 -26.8116
ltoes 22.9188
2032
root -1.95852 17.5638 22.032 -360.183 -153.017 0.547955
lowerback 7.48938 0.573501 -2.61175
upperback 2.4275 0.478412 2.90928
thorax -1.73656 0.164572 4.4446
lowerneck -5.6471 -6.88708 -14.5572
upperneck 33.6629 -14.8824 9.18328
head 14.2469 -8.48406 3.78163
rclavicle -2.0276e-014 3.18055e-015
rhumerus -31.6048 -10.7081 -76.5912
rradius 39.2611
rwrist -13.847
rhand -22.5937 10.1945
rfingers 7.12502
rthumb 3.83547 -19.7508
lclavicle -2.0276e-014 3.18055e-015
lhumerus -39.1575 8.32277 80.6357
lradius 32.9022
lwrist 5.88259
lhand -18.1178 21.471
lfingers 7.12502
lthumb 8.15669 -308.706
rfemur -18.3133 4.24202 17.2195
rtibia 40.62
rfoot -20.0719 15.1972
rtoes 3.52397
lfemur -6.76014 354.961 -16.7214
ltibia 27.0775
lfoot -11.0476 -26.3246
ltoes 23.5051
2033
root -1.98099 17.5697 22.0436 -360.157 -153.742 0.332053
lowerback 7.52494 0.580297 -2.81751
upperback 2.53472 0.465705 2.76219
thorax -1.64454 0.153816 4.40889
lowerneck -5.51301 -6.81792 -14.3957
upperneck 33.454 -14.8769 9.38049
head 14.1228 -8.45073 3.84216
rclavicle -1.14301e-014 5.64548e-014
rhumerus -31.5023 -11.349 -76.4171
rradius 38.8717
rwrist -14.8863
rhand -20.6015 9.90092
rfingers 7.12502
rthumb 5.75909 -20.0008
lclavicle -1.14301e-014 5.64548e-014
lhumerus -39.0448 8.27178 80.32
lradius 33.1581
lwrist 6.34158
lhand -20.2887 23.414
lfingers 7.12502
lthumb 6.06109 -306.693
rfemur -18.3874 3.16167 17.3166
rtibia 40.9376
rfoot -20.2678 13.3126
rtoes 2.70018
lfemur -6.38832 355.298 -17.0271
ltibia 26.7574
lfoot -11.5899 -25.6981
ltoes 22.5268
2034
root -2.00956 17.5776 22.0524 -360.089 -154.74 0.248039
lowerback 7.42274 0.648579 -2.86759
upperback 2.62981 0.549973 2.62053
thorax -1.49698 0.191028 4.28174
lowerneck -5.39967 -6.68273 -14.2743
upperneck 33.3125 -14.8086 9.64216
head 14.0338 -8.39418 3.94506
rclavicle 4.40308e-014 -2.38542e-015
rhumerus -31.4124 -11.7964 -76.4536
rradius 38.421
rwrist -15.0846
rhand -19.9636 8.48365
rfingers 7.12502
rthumb 6.37491 -21.4004
lclavicle 4.40308e-014 -2.38542e-015
lhumerus -38.9427 8.37071 79.9228
lradius 33.3694
lwrist 6.74268
lhand -21.1062 23.6036
lfingers 7.12502
lthumb 5.27179 -306.482
rfemur -18.6867 2.32173 17.4984
rtibia 41.2512
rfoot -19.8029 11.7998
rtoes 2.97614
lfemur -6.10474 355.762 -17.2197
ltibia 26.4969
lfoot -11.9447 -25.1254
ltoes 21.9868
